<?xml version="1.0" encoding="UTF-8" standalone="no"?>
<svg
   xmlns:dc="http://purl.org/dc/elements/1.1/"
   xmlns:cc="http://creativecommons.org/ns#"
   xmlns:rdf="http://www.w3.org/1999/02/22-rdf-syntax-ns#"
   xmlns:svg="http://www.w3.org/2000/svg"
   xmlns="http://www.w3.org/2000/svg"
   xmlns:sodipodi="http://sodipodi.sourceforge.net/DTD/sodipodi-0.dtd"
   xmlns:inkscape="http://www.inkscape.org/namespaces/inkscape"
   width="22.796577mm"
   height="22.796579mm"
   viewBox="0 0 22.796577 22.796579"
   version="1.1"
   id="svg8"
   inkscape:version="1.0.2-2 (e86c870879, 2021-01-15)"
   sodipodi:docname="openop2.svg">
  <title
     id="title938">OpenOP2 Original Logo</title>
  <defs
     id="defs2" />
  <sodipodi:namedview
     id="base"
     pagecolor="#ffffff"
     bordercolor="#666666"
     borderopacity="1.0"
     inkscape:pageopacity="0.0"
     inkscape:pageshadow="2"
     inkscape:zoom="5.6568543"
     inkscape:cx="13.421394"
     inkscape:cy="37.803914"
     inkscape:document-units="mm"
     inkscape:current-layer="layer1"
     inkscape:document-rotation="0"
     showgrid="true"
     inkscape:lockguides="true"
     inkscape:window-width="1920"
     inkscape:window-height="1017"
     inkscape:window-x="-8"
     inkscape:window-y="-8"
     inkscape:window-maximized="1"
     fit-margin-top="0.3"
     fit-margin-left="0.3"
     fit-margin-right="0.3"
     fit-margin-bottom="0.3">
    <inkscape:grid
       type="xygrid"
       id="grid31"
       originx="-5.0200882"
       originy="-1.0229157" />
  </sodipodi:namedview>
  <metadata
     id="metadata5">
    <rdf:RDF>
      <cc:Work
         rdf:about="">
        <dc:format>image/svg+xml</dc:format>
        <dc:type
           rdf:resource="http://purl.org/dc/dcmitype/StillImage" />
        <dc:title>OpenOP2 Original Logo</dc:title>
      </cc:Work>
    </rdf:RDF>
  </metadata>
  <g
     inkscape:label="Layer 1"
     inkscape:groupmode="layer"
     id="layer1"
     transform="translate(-5.0200887,-1.0229158)">
    <path
       id="path876"
       style="fill:#274519;fill-opacity:1;stroke:none;stroke-width:98.8951;stroke-miterlimit:4;stroke-dasharray:none;stroke-opacity:1"
       d="M 61.966797,5 A 41.999999,41.999999 0 0 0 20.107422,44 h 8.02539 A 34,34 0 0 1 62,13 34,34 0 0 1 96,47 34,34 0 0 1 65,80.867188 v 8.02539 A 41.999999,41.999999 0 0 0 104,47 41.999999,41.999999 0 0 0 62,5 41.999999,41.999999 0 0 0 61.966797,5 Z M 59,19.162109 A 28,28 0 0 0 34.162109,44 H 59 Z m 6,0 V 74.837891 A 28,28 0 0 0 90,47 28,28 0 0 0 65,19.162109 Z M 20.107422,50 A 41.999999,41.999999 0 0 0 59,88.892578 v -8.02539 A 34,34 0 0 1 28.132812,50 Z m 14.054687,0 A 28,28 0 0 0 59,74.837891 V 50 Z"
       transform="scale(0.26458333)" />
  </g>
  <g
     inkscape:groupmode="layer"
     id="layer2"
     inkscape:label="Layer 2"
     style="display:inline"
     transform="translate(-5.0200887,-1.0229158)" />
</svg>
